<svg xmlns="http://www.w3.org/2000/svg" viewBox="0 0 987.16 289.86"><defs><style>.cls-1{fill:#333;}.cls-2{fill:#0662a8;}.cls-3{fill:#f2f2f2;}</style></defs><g id="Слой_2" data-name="Слой 2"><g id="Слой_1-2" data-name="Слой 1"><path class="cls-1" d="M652.25,221.64V51.78h28.61V221.64Z"/><path class="cls-1" d="M755.26,223.25q-13.74,0-24-4.7a37.06,37.06,0,0,1-15.91-13.05,33.08,33.08,0,0,1-5.6-18.88,35.42,35.42,0,0,1,4.92-18.55q4.92-8.23,16.14-13t29.76-4.81H796v19H762.59q-14.65,0-19.69,4.69a15.17,15.17,0,0,0-5,11.56A14.58,14.58,0,0,0,744,197.83q6.18,4.59,17.17,4.58a37.24,37.24,0,0,0,18.89-4.8,27.28,27.28,0,0,0,12-14.2l4.81,17.17a31.75,31.75,0,0,1-14.77,16.71Q771.51,223.25,755.26,223.25Zm38.46-1.61V196.92l-1.6-5.27V148.39q0-12.58-7.56-19.58t-22.89-7A65.65,65.65,0,0,0,741.41,125,49.79,49.79,0,0,0,724.59,134l-11.22-20.83a68,68,0,0,1,23.46-11.33A105.28,105.28,0,0,1,765.11,98q26.55,0,41.09,12.71T820.73,150v71.65Z"/><path class="cls-1" d="M857.36,221.64V51.78H886v76l-2.29,32.51.91,32.51v28.84Zm67.76,1.61a55.23,55.23,0,0,1-27.7-6.87q-12.13-6.87-19.11-20.72t-7-35.14q0-21.51,7.21-35.25T898,104.78A55.22,55.22,0,0,1,925.12,98q18.09,0,31.94,7.79a57.93,57.93,0,0,1,22,21.74q8.12,14,8.12,33t-8.12,33a58.74,58.74,0,0,1-22,21.86Q943.2,223.24,925.12,223.25Zm-3.2-24.5a36.81,36.81,0,0,0,18.43-4.58,33.28,33.28,0,0,0,12.93-13.28,41.37,41.37,0,0,0,4.81-20.37q0-11.9-4.81-20.49a33.55,33.55,0,0,0-12.93-13.16,36.92,36.92,0,0,0-18.43-4.58,37.53,37.53,0,0,0-18.54,4.58,33.25,33.25,0,0,0-13,13.16q-4.82,8.58-4.81,20.49a41.37,41.37,0,0,0,4.81,20.37,33,33,0,0,0,13,13.28A37.42,37.42,0,0,0,921.92,198.75Z"/><polygon class="cls-2" points="596.56 0 0 17.05 17.09 289.86 613.63 289.86 596.56 0"/><path class="cls-3" d="M91.61,221.62V85.22H154q18.71,0,32.25,6a47.19,47.19,0,0,1,20.95,17.44q7.4,11.4,7.4,27,0,15.39-7.4,26.7a48.11,48.11,0,0,1-20.95,17.44Q172.67,186,154,186H113l17.15-16.75v52.41Zm38.58-48.32L113,155.57h38.58q12.09,0,18-5.26t5.94-14.62q0-9.54-5.94-14.81t-18-5.26H113l17.15-17.73Z"/><path class="cls-3" d="M233.27,221.62V85.22h62.35q18.7,0,32.25,6a47.19,47.19,0,0,1,20.95,17.44q7.4,11.4,7.4,27,0,15.39-7.4,26.6a47,47,0,0,1-20.95,17.15q-13.55,5.94-32.25,5.94H254.7l17.15-16.17v52.41Zm38.58-48.32L254.7,155.57h38.58q12.09,0,18-5.26t5.94-14.62q0-9.54-5.94-14.81t-18-5.26H254.7l17.15-17.73Zm45.79,48.32-33.9-49.69h41.11L359,221.62Z"/><path class="cls-3" d="M446.24,224.35a84.22,84.22,0,0,1-30.2-5.26A72.12,72.12,0,0,1,392,204.18a68.38,68.38,0,0,1-15.87-22.5,69.45,69.45,0,0,1-5.66-28.26,69.4,69.4,0,0,1,5.66-28.25A68.42,68.42,0,0,1,392,102.66,71.94,71.94,0,0,1,416,87.76a89.61,89.61,0,0,1,60.5,0,70.36,70.36,0,0,1,39.75,37.41,70,70,0,0,1-15.88,79.11,71.86,71.86,0,0,1-23.87,14.81A84,84,0,0,1,446.24,224.35Zm0-32a38.21,38.21,0,0,0,14.52-2.72,33.46,33.46,0,0,0,11.69-7.9,37.07,37.07,0,0,0,7.79-12.37,46.79,46.79,0,0,0,0-32.05,37.48,37.48,0,0,0-7.79-12.28,33.57,33.57,0,0,0-11.69-7.89,40,40,0,0,0-29,0A33.66,33.66,0,0,0,420,125.07a37.48,37.48,0,0,0-7.79,12.28,46.94,46.94,0,0,0,0,32.05A37.07,37.07,0,0,0,420,181.77a33.55,33.55,0,0,0,11.69,7.9A38.24,38.24,0,0,0,446.24,192.39Z"/></g></g></svg>